<?xml version="1.0" encoding="utf-8"?>
<svg fill="#ffffff" width="800px" height="800px" viewBox="-13.44 0 96.216 96.216" xmlns="http://www.w3.org/2000/svg">
  <path d="M453.785,918.608c1.709,0,3.42.005,5.129,0a3.157,3.157,0,0,1,3.363,2.421,24.729,24.729,0,0,1,1.174,5.274c.065.7.088,1.4.145,2.107a1.089,1.089,0,0,0,.894,1.055,6.265,6.265,0,0,0,1.166.3c1.5.057,3.006.092,4.512.066a.75.75,0,0,0,.7-.829,20.657,20.657,0,0,0-.521-2.637c-.28-1.063-.635-2.108-.954-3.162-.568-1.88.29-3.317,1.489-4.616a1.726,1.726,0,0,1,1.039-.553c3.256-.158,6.269-1.366,9.369-2.169a2.649,2.649,0,0,1,2.932.952,6.6,6.6,0,0,1,1.078,1.793,19.5,19.5,0,0,1,1.054,3.134c.727,3.229,1.289,6.5,2.092,9.706a5.1,5.1,0,0,1-.6,4.316,23.94,23.94,0,0,1-2.9,3.83,55.976,55.976,0,0,1-5.1,4.237,5.579,5.579,0,0,1-2.147,1.058,19.248,19.248,0,0,0-4.367,1.988c-.483.237-.885.64-.764,1.174.592,2.6-.771,4.678-1.806,6.812a3.28,3.28,0,0,0-.327,2.255c1.159,6.111,2.411,12.206,3.205,18.379.295,2.287.463,4.591.676,6.888a.966.966,0,0,0,.649.892c1.113.464,2.215.953,3.312,1.45a6.717,6.717,0,0,1,2.334,1.865,2.874,2.874,0,0,1,.941,2.7,2.024,2.024,0,0,0,.669,1.9,20.66,20.66,0,0,1,4.417,9.116,8.009,8.009,0,0,1-1.513,6.793,8.684,8.684,0,0,1-4.317,3.163,16.2,16.2,0,0,1-4.054,1.116c-2.981.214-5.918.969-8.983.326a38.935,38.935,0,0,0-6.318-.318c-2.2-.093-4.41-.218-6.619-.278a24.362,24.362,0,0,0-3.309.1,53.564,53.564,0,0,1-11.445.119c-4.123-.437-8.229-.389-12.344-.435a21.2,21.2,0,0,1-5.07-.629,4.236,4.236,0,0,1-3.291-4.992,2.919,2.919,0,0,1,.094-.6c1.347-3.882,2.359-7.919,4.919-11.263,1.28-1.67,2.206-3.6,3.75-5.08a1.618,1.618,0,0,0,.352-1.1,5.678,5.678,0,0,1,.789-2.872,3.913,3.913,0,0,1,2.957-2.329c.9-.092,1.186-.62,1.4-1.314.851-2.783,1.711-5.565,2.533-8.357,1.361-4.623,2.545-9.291,3.516-14.011.12-.589.2-1.188.314-1.779.219-1.109.008-1.97-1.219-2.345a1.663,1.663,0,0,1-1.244-1.525,3.845,3.845,0,0,0-.582-1.347c-.5-.868-1.016-1.731-1.578-2.56a1.6,1.6,0,0,0-.856-.727,15.849,15.849,0,0,1-5.757-2.51c-1.2-.733-2.458-1.384-3.623-2.167a18.125,18.125,0,0,1-2.561-2.075,6.545,6.545,0,0,1-2-4.888,60.336,60.336,0,0,1,.437-8.725,31.971,31.971,0,0,0,.159-4.217c.013-.7-.059-1.407-.057-2.11.014-2.417.844-3.32,3.189-3.411,1.809-.07,3.619-.089,5.43-.112,1.309-.017,2.617.032,3.922-.01a2.992,2.992,0,0,1,2.953,1.65,5.632,5.632,0,0,1,.957,3.408c-.189,2.145.469,4.169.846,6.231.2,1.1.568,1.273,1.636,1.189,1.2-.094,2.4-.127,3.606-.165,1.5-.049,1.7-.229,1.617-1.82-.045-.9-.218-1.789-.334-2.684a12.64,12.64,0,0,1-.086-3.9,3.2,3.2,0,0,1,3.2-3.013c1.9-.14,3.816-.162,5.726-.236Zm-16.277,82.013c.927-.091,1.094-1.092,1.777-1.489a1.3,1.3,0,0,1,1.619.284,2.247,2.247,0,0,1,.459,1.973c-.347,1.152-.683,2.309-1.053,3.454-.13.409.1.547.395.623a.714.714,0,0,0,.568-.051,6.526,6.526,0,0,0,.743-.915c.537-.725,1.029-1.483,1.607-2.175a1.01,1.01,0,0,1,1.352-.272,2.843,2.843,0,0,1,.851,1.145c.106.229-.035.581-.094.872a6.517,6.517,0,0,0-.207.869.6.6,0,0,0,.288.447,1.52,1.52,0,0,0,2.142-.816,17.133,17.133,0,0,1,.822-1.932,1.845,1.845,0,0,1,2.862-.358,2.215,2.215,0,0,1,.72,2.444c-.169.508.139.721.6.732.6.015,1.2.018,1.8,0,4.515-.157,9.033-.03,13.548-.393,2.9-.233,5.827-.068,8.739-.1,1.3-.015,2.611-.051,3.914-.125,1.082-.061,1.289-.365.971-1.283-.165-.475-.34-.944-.518-1.413-1.246-3.27-2.682-6.455-4.172-9.619a.921.921,0,0,0-.908-.627c-1.5.062-3.008.136-4.512.239-1.1.073-2.2.191-3.293.3-1.5.148-2.988.323-4.484.453a16.844,16.844,0,0,0-2.1.084,38.321,38.321,0,0,1-6.9.5c-.9.032-1.8.1-2.7.165-1.2.085-2.4.281-3.594.254-3.006-.07-6.01-.236-9.016-.367a14.564,14.564,0,0,0-1.5-.081,2.846,2.846,0,0,0-1.035.288,7.027,7.027,0,0,0,.516,2.324,3.564,3.564,0,0,1-.069,3.446,3.4,3.4,0,0,0-.082,1.171c-.15.1-.365.167-.431.307s.019.346.037.523c.1-.1.252-.184.289-.3A2.432,2.432,0,0,0,437.508,1000.621ZM427.434,927.66h-.211c0,.5-.026,1.008,0,1.509.06.995.148,1.988.222,2.981,1.2.033,1.446-1.188,2.239-1.687.083-.054.162-.155.247-.161a1.616,1.616,0,0,1,.825.018.974.974,0,0,1,.478.7,3.612,3.612,0,0,1-.437,1.408c-.606,1.043-1.307,2.028-1.918,3.067a3.784,3.784,0,0,0-.309,1.129c-.014.073.071.191.141.251a.229.229,0,0,0,.223.013,21.808,21.808,0,0,1,1.691-1.7,1.361,1.361,0,0,1,1.09-.16,1.1,1.1,0,0,1,.758,1.177,7,7,0,0,1-.309,1.157c-.2.828-.078,1.468.312,1.589.588.181.9-.213,1.254-.589a14.416,14.416,0,0,1,1.514-1.453,1.188,1.188,0,0,1,1.748.567,2.489,2.489,0,0,1,.174,1.149c-.1.691-.33,1.366-.49,2.051a1.171,1.171,0,0,0,.847,1.358,15.282,15.282,0,0,1,1.782.129c2.578.742,5.2.358,7.793.306,2.105-.044,4.205-.34,6.312-.431a10.36,10.36,0,0,1,3.3.216,15.615,15.615,0,0,0,4.769.347c2.6-.038,5.237-.366,7.745.715a1.2,1.2,0,0,0,.871-.023,12.062,12.062,0,0,0,2.929-1.48c2.977-2.537,6.637-4.218,9.17-7.312.176-.216.537-.268.772-.448a1.517,1.517,0,0,0,.637-2.05,26.705,26.705,0,0,1-.692-2.915c-.316-1.88-.551-3.774-.849-5.655a3.314,3.314,0,0,0-.413-1.126c-.13-.226-.449-.539-.632-.507q-2.966.489-5.914,1.1a.919.919,0,0,0-.758,1.123,28.7,28.7,0,0,1,.181,5.989c.012,2.9-.763,2.645-2.587,3.391a5.771,5.771,0,0,1-2.067.3c-1.607.02-3.223-.121-4.826-.039a6.842,6.842,0,0,1-5.172-1.964,5.267,5.267,0,0,1-1.92-3.889,28.6,28.6,0,0,0-.615-3.859,1.256,1.256,0,0,0-1.311-1.033c-1.91-.042-3.822-.056-5.73-.026-.184,0-.459.36-.518.594a1.891,1.891,0,0,0,.112.88,25.851,25.851,0,0,1,.38,7.8,2.494,2.494,0,0,1-2.668,2.665c-2.414.058-4.828.027-7.242-.015-2.58-.045-4.441-1.636-6.33-3.1a2.451,2.451,0,0,1-.685-1.3,25.159,25.159,0,0,1-.61-3.249c-.121-1.1-.092-2.21-.146-3.315-.039-.785-.367-1.186-1.041-1.2-1.1-.023-2.213-.018-3.315.031a.791.791,0,0,0-.789.76C427.412,924.845,427.434,926.253,427.434,927.66Zm32.754,53.621c1.037,0,1.839-.006,2.644,0,1.711.013,3.42.036,5.127.044.75,0,1.066-.345.961-1.143-.26-1.989-.58-3.97-.828-5.959q-.522-4.18-.969-8.37c-.2-1.9-.441-3.793-.5-5.694-.064-2.108-.93-4.126-.631-6.271a.711.711,0,0,0-.754-.757,23.676,23.676,0,0,0-3.013-.021c-4.1.355-8.2.761-12.293,1.151a1.206,1.206,0,0,0-.582.12c-.3.227-.744.5-.774.795-.092.96-.576,1.95.045,2.9.76-.2,1.514-.428,2.283-.6a7.983,7.983,0,0,1,1.78-.243,4.476,4.476,0,0,1,1.443.335,1.484,1.484,0,0,1,1.023,1.358,1.609,1.609,0,0,1-.923,1.736,14.987,14.987,0,0,1-1.987.675c-1.441.425-2.886.822-4.326,1.249a1.986,1.986,0,0,0-.482.331,2.761,2.761,0,0,0,.828.15c.392-.047.769-.292,1.156-.3a20.987,20.987,0,0,1,3.3.05,2.25,2.25,0,0,1,1.781,2.155,2.32,2.32,0,0,1-1.625,2.283,4.748,4.748,0,0,1-.881.189,22.806,22.806,0,0,1-4.775.556,1.3,1.3,0,0,0-1.5.729c-.192.458.221.627,1.359.554.6-.039,1.2-.1,1.805-.121a3.821,3.821,0,0,1,2.262.715,2.149,2.149,0,0,1,.332,3.375,5.232,5.232,0,0,1-2.934,1.419c-1.295.169-2.58.374-3.865.6a2.6,2.6,0,0,0-.795.368c-.055.031-.068.186-.053.275s.1.225.147.225c.38,0,.759-.067,1.136-.052a8.039,8.039,0,0,1,2.057.181,1.733,1.733,0,0,1,1.236,1.565,1.711,1.711,0,0,1-.97,1.732,4.711,4.711,0,0,1-1.694.539c-.793.084-1.6-.013-2.408,0a1.422,1.422,0,0,0-.85.2,2.738,2.738,0,0,0-.619.969c-.138.332.221.62.785.627,1.309.017,2.618.063,3.92.007C451.188,981.722,455.8,981.489,460.188,981.281Zm1.25,7.368c0,.029,0,.056.005.084.8,0,1.608.013,2.411,0a43.719,43.719,0,0,0,9.529-1.106c.125-.029.2-.293.269-.46.014-.033-.109-.163-.187-.182-1.914-.489-3.768-1.172-5.83-1.012a33.471,33.471,0,0,1-5.7-.242,39.316,39.316,0,0,0-7.815-.013c-1.992.21-3.992.327-5.984.536a11.438,11.438,0,0,0-2.344.382,3.406,3.406,0,0,1-2.354.024,11.42,11.42,0,0,0-4.16-.483c-2.1-.02-4.211-.031-6.314-.052-.453-.005-.807.187-.865.622a1.826,1.826,0,0,0,.15,1.124,1.587,1.587,0,0,0,.945.661,23.049,23.049,0,0,0,3.869.519q7.527.077,15.055-.018C455.23,988.986,458.332,988.782,461.438,988.649Zm1.375-38.985c0,.05.009.1.013.152,1.811,0,3.623.008,5.432-.005.48,0,.668-.379.453-.847-.166-.364-.336-.73-.52-1.086a1.53,1.53,0,0,0-1.459-.889,68.257,68.257,0,0,0-9.326.336,46.581,46.581,0,0,1-9,.79,9.7,9.7,0,0,0-3.85.524,3.971,3.971,0,0,1-3.206.12c-.288-.137-.77.043-1.131.168-.325.113-.127.661.343,1.265a2.541,2.541,0,0,0,2.119.9,99.856,99.856,0,0,0,12.333-.71C457.617,950.171,460.213,949.9,462.813,949.664Zm-31.35,54.84c-.055-.189-.111-.378-.166-.567a3.235,3.235,0,0,0-.383.431,1.23,1.23,0,0,0-.211.554c0,.141.147.4.231.4a.591.591,0,0,0,.445-.246A1.555,1.555,0,0,0,431.463,1004.5Zm4.752.527c-.049-.17-.1-.34-.152-.51a1.289,1.289,0,0,0-.225.425c-.01.093.15.2.234.306C436.119,1005.179,436.168,1005.1,436.215,1005.031Z" transform="translate(-419.333 -915.747)" fill-rule="evenodd"/>
</svg>
